Coordinates
version=1
nRows=14
nColumns=40
inDegrees=yes

Units are S.I. units (second, meters, Newtons, ...)
Angles are in degrees.

endheader
time	pelvis_tilt	pelvis_list	pelvis_rotation	pelvis_tx	pelvis_ty	pelvis_tz	hip_flexion_r	hip_adduction_r	hip_rotation_r	knee_angle_r	knee_angle_r_beta	ankle_angle_r	subtalar_angle_r	mtp_angle_r	hip_flexion_l	hip_adduction_l	hip_rotation_l	knee_angle_l	knee_angle_l_beta	ankle_angle_l	subtalar_angle_l	mtp_angle_l	lumbar_extension	lumbar_bending	lumbar_rotation	arm_flex_r	arm_add_r	arm_rot_r	elbow_flex_r	pro_sup_r	wrist_flex_r	wrist_dev_r	arm_flex_l	arm_add_l	arm_rot_l	elbow_flex_l	pro_sup_l	wrist_flex_l	wrist_dev_l
     58.23500000	     -4.43541938	     -4.03726106	     -4.00405054	      1.03988010	      0.92947236	      0.46433233	     23.90828749	     -1.81982267	    -12.00452666	     11.18668928	     11.18668928	      2.59843300	      6.23492447	      7.32040679	      4.07037566	     -5.22077450	    -12.75945085	     14.69309870	     14.69309870	     15.25821544	     -7.09130992	     -5.24737542	     -9.86686129	      4.60234387	      1.12111281	    -10.57215692	    -11.83992340	     -7.24085115	     27.29783941	     46.78791607	      0.00000000	      0.00000000	     22.23535876	    -19.06232545	     -9.65206747	     80.47934396	     47.68553951	      0.00000000	      0.00000000
     58.24821429	     -4.27673262	     -4.09774986	     -3.91406207	      1.04150405	      0.92920173	      0.46626835	     22.91965371	     -1.50406404	    -12.73287822	     10.53667404	     10.53667404	      2.10435176	      6.76642644	      7.02931147	      3.04574359	     -5.37504722	    -13.19401189	     14.03356018	     14.03356018	     15.59076506	     -5.98153739	     -5.45706405	     -9.90517630	      4.69006927	      1.00655110	    -10.39442819	    -11.66918179	     -7.13671292	     27.69472523	     46.75347275	      0.00000000	      0.00000000	     21.80139389	    -18.84704056	     -9.78475246	     80.08244968	     47.69206722	      0.00000000	      0.00000000
     58.26142857	     -4.28573431	     -4.08288879	     -3.84539220	      1.04302795	      0.92828938	      0.46841736	     22.46497681	     -1.26767973	    -12.77486005	     10.70091063	     10.70091063	      0.92542459	      5.91294056	      3.72267795	      2.54424549	     -5.56081322	    -13.62980358	     14.05237444	     14.05237444	     16.26690819	     -4.99142552	     -5.20952815	     -9.71435650	      4.71717432	      0.97813543	    -10.33973699	    -11.67567755	     -6.59581988	     28.28832288	     46.65028758	      0.00000000	      0.00000000	     21.50314111	    -18.55382840	     -9.93175526	     79.59287791	     47.71737879	      0.00000000	      0.00000000
     58.27464286	     -4.24550338	     -4.09414054	     -3.74249784	      1.04463692	      0.92757564	      0.47055198	     22.15515951	     -1.12993082	    -12.87202991	     11.49821024	     11.49821024	      0.88590286	      5.24185649	      3.17043571	      1.90111204	     -5.67286984	    -13.56164060	     13.84418401	     13.84418401	     16.57482508	     -4.79901124	     -5.14445722	     -9.60199922	      4.76994632	      0.92486681	     -9.95071796	    -11.66271474	     -6.53595239	     28.47929565	     46.63685952	      0.00000000	      0.00000000	     21.02045584	    -18.44633915	     -9.81268871	     79.19361709	     47.70227243	      0.00000000	      0.00000000
     58.28785714	     -4.24063357	     -4.05066312	     -3.60024491	      1.04634993	      0.92678222	      0.47280702	     21.89894392	     -1.01361875	    -12.49300668	     12.33138822	     12.33138822	      0.45855002	      3.76847929	      1.19931015	      1.39003285	     -5.79172662	    -13.66697008	     13.83041510	     13.83041510	     17.08521844	     -4.33913300	     -4.73395135	     -9.37587172	      4.78324812	      0.76840320	     -9.45960828	    -11.59854819	     -6.28083534	     28.76444481	     46.59749627	      0.00000000	      0.00000000	     20.48280268	    -18.22648211	     -9.71970477	     78.40169857	     47.68656823	      0.00000000	      0.00000000
     58.30107143	     -4.16774349	     -4.05026004	     -3.44264465	      1.04816437	      0.92611472	      0.47514830	     21.61538830	     -0.89660951	    -12.19121062	     13.26356827	     13.26356827	      0.26514987	      2.48273055	     -0.56127796	      0.87765603	     -5.98240401	    -13.69533829	     13.97738325	     13.97738325	     17.64316927	     -3.91164041	     -4.27802059	     -9.23786468	      4.85375447	      0.72974969	     -8.90274799	    -11.61216606	     -6.05353852	     29.09877624	     46.56038018	      0.00000000	      0.00000000	     19.90165162	    -18.00203824	     -9.63046739	     77.62192599	     47.66950328	      0.00000000	      0.00000000
     58.31428571	     -3.97897154	     -4.12078714	     -3.26540241	      1.05006208	      0.92575192	      0.47757787	     21.27754696	     -0.76225674	    -12.00645624	     14.32271208	     14.32271208	      0.56294909	      1.56936579	     -1.38617247	      0.28289875	     -6.25399155	    -13.61675317	     14.19140405	     14.19140405	     18.00800208	     -3.77470302	     -4.08525812	     -9.26264700	      4.98376281	      0.69699175	     -8.24145253	    -11.66595249	     -5.98485985	     29.42932670	     46.54311077	      0.00000000	      0.00000000	     19.24304843	    -17.76596449	     -9.50394592	     76.93613979	     47.64673491	      0.00000000	      0.00000000
     58.32750000	     -3.90318352	     -4.10013114	     -3.08499885	      1.05189233	      0.92535411	      0.48012363	     21.15080792	     -0.67652649	    -11.49008312	     15.40861174	     15.40861174	      0.87003209	      0.18186087	     -2.39544911	     -0.04458705	     -6.49406467	    -13.58224421	     14.66157593	     14.66157593	     18.44585220	     -3.53554197	     -3.65806590	     -9.11262291	      5.02274817	      0.54444430	     -7.43240835	    -11.66734235	     -5.86251494	     29.90278397	     46.51496392	      0.00000000	      0.00000000	     18.45177608	    -17.53318677	     -9.41768641	     75.77260749	     47.61813624	      0.00000000	      0.00000000
     58.34071429	     -3.67812820	     -4.21171692	     -2.91411240	      1.05392104	      0.92547516	      0.48277935	     20.69618687	     -0.47134479	    -11.32413575	     16.15715609	     16.15715609	      1.38554700	     -0.44270650	     -2.88339357	     -0.52839271	     -6.87037768	    -13.46408469	     15.15112412	     15.15112412	     18.64456362	     -3.59279238	     -3.51241918	     -9.16511815	      5.19148558	      0.66650894	     -6.65213544	    -11.77755046	     -5.83580862	     30.26052067	     46.50265751	      0.00000000	      0.00000000	     17.54694166	    -17.03253766	     -9.21163231	     75.02789795	     47.58587221	      0.00000000	      0.00000000
     58.35392857	     -3.60500154	     -4.19800695	     -2.70727413	      1.05570840	      0.92541423	      0.48560790	     20.62488424	     -0.34593816	    -10.72786607	     17.16787360	     17.16787360	      1.90505756	     -1.86466334	     -3.55296881	     -0.50430237	     -7.24097292	    -13.35242695	     16.25343549	     16.25343549	     19.03837669	     -3.54436356	     -3.08046989	     -8.99636890	      5.22346066	      0.35367567	     -5.61104335	    -11.82094221	     -5.74561909	     30.94633518	     46.47028936	      0.00000000	      0.00000000	     16.69823830	    -16.95556585	     -9.21255709	     73.23260210	     47.55136110	      0.00000000	      0.00000000
     58.36714286	     -3.43630764	     -4.28172401	     -2.53732322	      1.05763047	      0.92584322	      0.48867272	     20.17847256	     -0.02658138	    -10.13032975	     17.61298221	     17.61298221	      2.23527637	     -3.17835164	     -4.28569894	     -0.47745083	     -7.80054449	    -13.41119683	     17.64978251	     17.64978251	     19.86267023	     -3.10985782	     -1.61679295	     -8.93988712	      5.35392326	      0.69116373	     -4.95250083	    -12.04702670	     -5.28249200	     31.89137313	     46.38369145	      0.00000000	      0.00000000	     16.40232638	    -16.19044792	     -9.26383320	     70.58492655	     47.51143503	      0.00000000	      0.00000000
     58.38035714	     -3.12210232	     -4.21615655	     -2.41460748	      1.05969293	      0.92675932	      0.49167493	     19.53487073	      0.03929848	     -9.97709983	     18.00023648	     18.00023648	      2.88886711	     -3.34008706	     -4.55511538	     -0.73169336	     -8.08394621	    -13.22462710	     18.69156263	     18.69156263	     19.67452425	     -3.44496844	     -1.66559638	     -9.08676868	      5.25048088	      0.93446424	     -3.95558016	    -12.16285182	     -5.30644360	     32.36311016	     46.37263069	      0.00000000	      0.00000000	     15.20954840	    -15.60324183	     -8.96970557	     69.81718171	     47.46953237	      0.00000000	      0.00000000
     58.39357143	     -2.94833217	     -4.32758791	     -2.15690521	      1.06131105	      0.92730253	      0.49485929	     19.10847554	      0.28587956	    -10.01084731	     18.47639785	     18.47639785	      3.58470755	     -3.77169204	     -4.79057591	     -0.19198631	     -8.74091463	    -12.68746124	     20.86544500	     20.86544500	     19.50405282	     -4.21907390	     -1.98338944	     -9.13151057	      5.38971112	      0.51999204	     -2.55788365	    -12.30514951	     -5.36024910	     33.28962334	     46.34573694	      0.00000000	      0.00000000	     14.16456736	    -15.71522648	     -8.84584189	     68.02328670	     47.42471873	      0.00000000	      0.00000000
     58.40678571	     -2.95888295	     -4.30205570	     -1.87149257	      1.06279210	      0.92785557	      0.49792527	     18.76713540	      0.43079294	     -9.91159097	     18.69157938	     18.69157938	      4.19919554	     -4.25394741	     -4.59181066	      0.65341002	     -9.23980196	    -12.04318745	     23.09769243	     23.09769243	     18.87009938	     -5.17213377	     -2.83152101	     -8.82695576	      5.41221333	      0.66401278	     -1.90505100	    -12.58266680	     -4.90601003	     35.18644249	     46.22265084	      0.00000000	      0.00000000	     14.07269352	    -14.99964298	     -8.79589568	     63.69108127	     47.34945919	      0.00000000	      0.00000000
